<svg width="1917" height="2689" viewBox="0 0 1917 2689" fill="none" xmlns="http://www.w3.org/2000/svg">
<line x1="0.685647" y1="372.124" x2="429.124" y2="-0.685647" stroke="url(#paint0_linear_2_17)" stroke-width="14" stroke-linecap="round" stroke-dasharray="10 20"/>
<line x1="0.977592" y1="2143.15" x2="1934.15" y2="559.023" stroke="url(#paint1_linear_2_17)" stroke-width="14" stroke-linecap="round" stroke-dasharray="10 20"/>
<path d="M37.7656 305.704C23.2424 315.774 19.6329 335.711 29.7035 350.234C39.7741 364.758 59.7113 368.367 74.2344 358.296C88.7576 348.226 92.3671 328.289 82.2965 313.766C72.2259 299.242 52.2887 295.633 37.7656 305.704ZM824.971 1451.49C826.859 1454.21 830.597 1454.89 833.32 1453C836.043 1451.11 836.72 1447.37 834.832 1444.65L824.971 1451.49ZM51.0694 335.419L824.971 1451.49L834.832 1444.65L60.9306 328.581L51.0694 335.419Z" fill="url(#paint2_linear_2_17)"/>
<path d="M1308.77 1015.7C1294.24 1025.77 1290.63 1045.71 1300.7 1060.23C1310.77 1074.76 1330.71 1078.37 1345.23 1068.3C1359.76 1058.23 1363.37 1038.29 1353.3 1023.77C1343.23 1009.24 1323.29 1005.63 1308.77 1015.7ZM2095.97 2161.49C2097.86 2164.21 2101.6 2164.89 2104.32 2163C2107.04 2161.11 2107.72 2157.37 2105.83 2154.65L2095.97 2161.49ZM1322.07 1045.42L2095.97 2161.49L2105.83 2154.65L1331.93 1038.58L1322.07 1045.42Z" fill="url(#paint3_linear_2_17)"/>
<path d="M465.766 1712.7C451.242 1722.77 447.633 1742.71 457.704 1757.23C467.774 1771.76 487.711 1775.37 502.234 1765.3C516.758 1755.23 520.367 1735.29 510.296 1720.77C500.226 1706.24 480.289 1702.63 465.766 1712.7ZM1252.97 2858.49C1254.86 2861.21 1258.6 2861.89 1261.32 2860C1264.04 2858.11 1264.72 2854.37 1262.83 2851.65L1252.97 2858.49ZM479.069 1742.42L1252.97 2858.49L1262.83 2851.65L488.931 1735.58L479.069 1742.42Z" fill="url(#paint4_linear_2_17)"/>
<path d="M1361.33 -55.9886C1346.98 -45.6771 1343.7 -25.6825 1354.01 -11.3294C1364.32 3.02375 1384.32 6.30011 1398.67 -4.01141C1413.02 -14.3229 1416.3 -34.3175 1405.99 -48.6706C1395.68 -63.0238 1375.68 -66.3001 1361.33 -55.9886ZM1833.33 601.011C1818.98 611.323 1815.7 631.318 1826.01 645.671C1836.32 660.024 1856.32 663.3 1870.67 652.989C1885.02 642.677 1888.3 622.682 1877.99 608.329C1867.68 593.976 1847.68 590.7 1833.33 601.011ZM1375.13 -26.4993L1847.13 630.501L1856.87 623.499L1384.87 -33.5007L1375.13 -26.4993Z" fill="url(#paint5_linear_2_17)"/>
<defs>
<linearGradient id="paint0_linear_2_17" x1="-71.5035" y1="437.996" x2="499.993" y2="-64.0077" gradientUnits="userSpaceOnUse">
<stop stop-color="#FF2514"/>
<stop offset="1" stop-color="#FF7800"/>
</linearGradient>
<linearGradient id="paint1_linear_2_17" x1="-305.964" y1="2397.65" x2="2192.12" y2="264.949" gradientUnits="userSpaceOnUse">
<stop stop-color="#FF2514"/>
<stop offset="1" stop-color="#FF7800"/>
</linearGradient>
<linearGradient id="paint2_linear_2_17" x1="-60.7605" y1="155.377" x2="966.633" y2="1603.05" gradientUnits="userSpaceOnUse">
<stop stop-color="#FF2514"/>
<stop offset="1" stop-color="#FF7800"/>
</linearGradient>
<linearGradient id="paint3_linear_2_17" x1="1210.24" y1="865.377" x2="2237.63" y2="2313.05" gradientUnits="userSpaceOnUse">
<stop stop-color="#FF2514"/>
<stop offset="1" stop-color="#FF7800"/>
</linearGradient>
<linearGradient id="paint4_linear_2_17" x1="367.24" y1="1562.38" x2="1394.63" y2="3010.05" gradientUnits="userSpaceOnUse">
<stop stop-color="#FF2514"/>
<stop offset="1" stop-color="#FF7800"/>
</linearGradient>
<linearGradient id="paint5_linear_2_17" x1="1310.25" y1="-135.138" x2="1932.78" y2="719.621" gradientUnits="userSpaceOnUse">
<stop stop-color="#FF2514"/>
<stop offset="1" stop-color="#FF7800"/>
</linearGradient>
</defs>
</svg>
